# xmcd
# 
# Track frame offsets:
#     150
#     129800
#     144451
#     156824
#     172519
#     185901
#     200985
#     214838
#     228263
#     242200
#     255882
#     266664
#     281528
#     297064
#     309296
# 
# Disc length: 4309
# 
# Revision: 3
# Processed by: cddbd v1.5.2PL0 Copyright (c) Steve Scherf et al.
# Submitted via: fre:ac v1.0.17
# 
DISCID=d310d30f
DTITLE=Various Artist - Jazz Greats
DYEAR=1994
DGENRE=Jazz
TTITLE0=unknown - Data
TTITLE1=Jelly Roll Morton - Black Bottom Stomp
TTITLE2=James P.johnson - Carolina Shout
TTITLE3=Bessie Smith - Down Hearted Blues (1)
TTITLE4=Duke Ellington - Take the "A" Train (3)
TTITLE5=Louis Armstrong - West End Blues
TTITLE6=Coleman Hawkins - Body and Soul (1)
TTITLE7=Johnny Hodges - Jeep's Blues
TTITLE8=Count Basie - One O'Clock Jump (1)
TTITLE9=Fats Waller - Ain't Misbehavin' (1)
TTITLE10=Bennie Goodman and Charlie Christian - Breakfast Feud
TTITLE11=Count Basie and Lester Young - Lester Leaps In
TTITLE12=Art Tatum - Tea for Two (1)
TTITLE13=Billie Holiday - He's Funny That Way (1)
TTITLE14=Gene Krupe/Roy Eldridge - Rockin' Chair
EXTD=YEAR: 1994
EXTT0=
EXTT1=
EXTT2=
EXTT3=
EXTT4=
EXTT5=
EXTT6=
EXTT7=
EXTT8=
EXTT9=
EXTT10=
EXTT11=
EXTT12=
EXTT13=
EXTT14=
PLAYORDER=
